# xmcd
#
# Track frame offsets:
#	150
#	8528
#	22487
#	25311
#	30831
#	46410
#	68216
#	86652
#	106620
#	136779
#	161256
#	182881
#	198654
#	207793
#	222007
#	238346
#
# Disc length: 3359 seconds
#
# Revision: 1
# Processed by: cddbd v1.5PL3 Copyright (c) Steve Scherf et al.
# Submitted via: audiograbber 1.82.01
#
DISCID=d10d1d10
DTITLE=Cream - Cream Remasters - Disraeli Gears Live - Disc 1
DYEAR=1900
DGENRE=
TTITLE0=Cream - Intro - Lawdy Mama
TTITLE1=Cream - Strange Brew
TTITLE2=Cream - Interview of Eric Clapton
TTITLE3=Cream - Introduction
TTITLE4=Cream - Tales of Brave Ulysses
TTITLE5=Cream - World of Pain
TTITLE6=Cream - Outside Woman Blues
TTITLE7=Cream - Dance the Night Away
TTITLE8=Cream - Sleepy Time Time
TTITLE9=Cream - Sweet Wine
TTITLE10=Cream - Rollin' and Tumblin
TTITLE11=Cream - NSU
TTITLE12=Cream - I Feel Free
TTITLE13=Cream - Take it Back
TTITLE14=Cream - Intro - Stepping Out
TTITLE15=Cream - Tales of Brave Ulysses
EXTD=
EXTT0=
EXTT1=
EXTT2=
EXTT3=
EXTT4=
EXTT5=
EXTT6=
EXTT7=
EXTT8=
EXTT9=
EXTT10=
EXTT11=
EXTT12=
EXTT13=
EXTT14=
EXTT15=
PLAYORDER=
